<?xml version="1.0" encoding="UTF-8"?>
<svg version="1.1" xmlns="http://www.w3.org/2000/svg" width="1500" height="1500">
<path d="M0 0 C2.87480359 0.22695818 4.49262126 0.48013417 6.53759766 2.57543945 C8.45841781 5.76002459 9.2337154 9.01363329 10.0234375 12.60546875 C10.27738785 13.72564644 10.27738785 13.72564644 10.53646851 14.86845398 C12.37924902 23.28278856 13.5395359 31.77328725 14.625 40.3125 C14.83779046 41.94575368 15.05084631 43.5789728 15.26416016 45.2121582 C15.85953849 49.80607264 16.43386447 54.40240079 17 59 C17.14244141 60.14823242 17.28488281 61.29646484 17.43164062 62.47949219 C17.76314383 65.21395046 18.07640351 67.94927769 18.375 70.6875 C18.45959473 71.41428955 18.54418945 72.1410791 18.63134766 72.88989258 C19.59209958 82.56046832 18.65119247 89.475439 12.625 97.25 C11.81470337 98.34332642 11.81470337 98.34332642 10.98803711 99.45874023 C9.34771613 101.65725427 7.67891774 103.83087258 6 106 C5.52675293 106.61955566 5.05350586 107.23911133 4.56591797 107.87744141 C-1.18007973 115.39271631 -7.17874629 122.70795626 -13.16162109 130.03491211 C-16.68509659 134.35594869 -20.14159296 138.72252764 -23.5625 143.125 C-27.79879087 148.56712936 -32.22090352 153.82130809 -36.73291016 159.03613281 C-40.1891221 163.03522292 -43.53686018 167.10085623 -46.8125 171.25 C-48.54708473 173.4306208 -50.29746482 175.59416627 -52.0625 177.75 C-58.11094644 185.13771997 -64.06321257 192.56103278 -69.71582031 200.25927734 C-71.214698 202.29102599 -72.72849364 204.31129799 -74.2421875 206.33203125 C-105.25466435 247.86836483 -137.84149306 297.56060091 -140 351 C-140.02723145 351.6511377 -140.05446289 352.30227539 -140.08251953 352.97314453 C-140.60648739 366.79358992 -140.60648739 366.79358992 -137 380 C-134.18688706 382.71953746 -133.35515623 382.9939804 -129.3125 383.0625 C-124.02601509 382.16665246 -120.18499475 379.18968701 -116 376 C-115.01 375.278125 -114.02 374.55625 -113 373.8125 C-108.91715621 370.27477704 -105.69723571 365.9096886 -102.34960938 361.6953125 C-99.81446732 358.51079252 -97.25073655 355.34941833 -94.6875 352.1875 C-94.13376709 351.50316895 -93.58003418 350.81883789 -93.00952148 350.11376953 C-89.41769365 345.69201769 -85.73982105 341.35923659 -82 337.0625 C-75.29657299 329.32054503 -69.09946536 321.22256651 -63 313 C-62.50000488 312.33162109 -62.00000977 311.66324219 -61.48486328 310.97460938 C-44.86711068 288.64227848 -32.39858017 264.66917603 -22.92529297 238.58740234 C-6.54258263 193.69890093 -6.54258263 193.69890093 5 179 C7.9375 178.125 7.9375 178.125 11 179 C22.63758386 188.3336967 26.93154243 208.36054937 28.70703125 222.44140625 C29.07247412 226.88031895 29.36488005 231.2978615 29.5 235.75 C29.54294189 236.51094971 29.58588379 237.27189941 29.63012695 238.0559082 C29.72777289 246.89970983 26.1413248 254.88834367 23 263 C22.69805725 263.7874762 22.3961145 264.57495239 22.08502197 265.3862915 C20.12522983 270.4946612 18.13575064 275.59109041 16.13919067 280.68518066 C-7.28141632 340.55473378 -24.14399929 399.83219805 -37.91116333 462.56622314 C-39.06151403 467.79627508 -40.22915838 473.02133468 -41.43554688 478.23876953 C-41.66473816 479.23219864 -41.89392944 480.22562775 -42.13006592 481.24916077 C-42.55880968 483.10077459 -42.99086934 484.95162543 -43.42706299 486.80149841 C-45.41366243 495.38196478 -46.19947289 503.69565061 -46.25 512.5 C-46.270625 513.39847656 -46.29125 514.29695313 -46.3125 515.22265625 C-46.34718025 521.17898999 -45.59874882 525.60820338 -43 531 C-39.92007619 533.05328254 -38.7256089 533.44900673 -35.1484375 532.77734375 C-20.00972122 527.29988095 -11.71535839 510.99704514 -5.1027832 497.375 C1.4694578 483.22074708 5.42372591 468.0392455 9.375 453 C10.00650999 450.6208495 10.63802043 448.24169911 11.26953125 445.86254883 C20.82561837 409.68772272 29.83835152 373.36881818 38.95719337 337.08205318 C50.89276962 289.5869819 62.85328006 242.09719457 75.02441406 194.66185379 C75.55085441 192.60793553 76.07583757 190.55365051 76.6003418 188.49923706 C79.6821836 176.43497296 82.79033151 164.37466561 86.21484375 152.40234375 C86.55111534 151.17276695 86.55111534 151.17276695 86.8941803 149.91835022 C87.82237899 146.76756699 88.59950201 144.40852726 90.92407227 142.03735352 C102.44885236 136.27835192 123.01039901 139.50378717 134.6875 143.375 C139.61229773 145.79093851 139.61229773 145.79093851 141 149 C141.25433446 154.59123774 140.67227151 159.56038454 139.34765625 165.00390625 C139.17272644 165.75109421 138.99779663 166.49828217 138.81756592 167.26811218 C138.24333328 169.70229444 137.6543029 172.1325336 137.0625 174.5625 C136.75764175 175.82809753 136.75764175 175.82809753 136.44662476 177.1192627 C131.25823625 198.62200594 125.17331289 219.73557194 118.04174805 240.67041016 C109.58032285 265.5192627 102.60643355 290.60133036 96 316 C95.59749679 317.54699793 95.19499012 319.09399496 94.79248047 320.64099121 C94.13705463 323.16023827 93.48166425 325.67949454 92.82633495 328.19876671 C90.22038608 338.21658236 87.61226402 348.23382909 85 358.25 C84.75987057 359.17084633 84.51974113 360.09169266 84.27233505 361.04044342 C69.95412042 415.92697045 54.6849931 470.20876773 30.8828125 521.86328125 C29.29799905 525.30849393 27.84292299 528.7896351 26.4375 532.3125 C18.98281306 550.34067147 7.89099513 565.50496602 -5 580 C-5.98033203 581.10794922 -5.98033203 581.10794922 -6.98046875 582.23828125 C-18.39928337 594.38751045 -34.35663524 604.74910578 -51.19921875 605.95703125 C-59.40869947 606.08297865 -65.85720795 603.44449953 -72 598 C-81.64916791 587.23813525 -85.51153455 574.14533999 -89.1875 560.4375 C-89.52974609 559.20064453 -89.87199219 557.96378906 -90.22460938 556.68945312 C-100.32571817 519.59975074 -94.50029185 483.5759103 -87.375 446.4609375 C-87.23942688 445.75160065 -87.10385376 445.04226379 -86.96417236 444.31143188 C-86.31113252 440.89973044 -85.648286 437.49085855 -84.96777344 434.08447266 C-83.33635087 425.69383394 -82.41099194 417.53548055 -82 409 C-82.89138672 409.89924194 -82.89138672 409.89924194 -83.80078125 410.81665039 C-86.04266107 413.07574527 -88.28691531 415.33244873 -90.53271484 417.58764648 C-91.49751459 418.55742273 -92.46140895 419.5281007 -93.42431641 420.49975586 C-98.57405073 425.69503934 -103.74660825 430.7877389 -109.30615234 435.54467773 C-111.53855329 437.46271493 -113.66687002 439.4858885 -115.8125 441.5 C-126.00432766 450.66013958 -136.19943331 456.75456921 -150.140625 456.34765625 C-154.43398431 455.82564945 -157.46738272 454.43735166 -161 452 C-161.56976563 451.63390625 -162.13953125 451.2678125 -162.7265625 450.890625 C-181.02982603 437.35122458 -185.81727593 408.79716521 -189 388 C-189.82408634 381.86751455 -190.1805349 375.81348299 -190.23828125 369.62890625 C-190.2480751 368.7572583 -190.25786896 367.88561035 -190.26795959 366.98754883 C-190.82633034 304.38887167 -168.03047116 256.37808493 -133.13061523 205.2875061 C-129.94565109 200.62334274 -126.78013421 195.94600239 -123.61328125 191.26953125 C-122.97206329 190.32331406 -122.33084534 189.37709686 -121.67019653 188.40220642 C-115.36803077 179.09058845 -109.16748884 169.71370462 -103 160.3125 C-102.49018585 159.53555786 -101.9803717 158.75861572 -101.45510864 157.95812988 C-98.94275332 154.12813293 -96.4325239 150.29675032 -93.92382812 146.46435547 C-91.03206586 142.04734878 -88.13395922 137.63453086 -85.234375 133.22265625 C-76.25092246 119.55182754 -67.28203225 105.87194667 -58.38818359 92.14257812 C-57.03741998 90.0577555 -55.68488594 87.97409113 -54.33203125 85.890625 C-39.29237514 62.71143586 -24.24667934 39.5216914 -10.3347168 15.64257812 C-2.86006333 2.86006333 -2.86006333 2.86006333 0 0 Z " fill="#751E2B" transform="translate(598,573)"/>
<path d="M0 0 C15.52275365 4.43813537 29.74413252 14.97201704 42.95019531 23.93847656 C48.9665253 28.00523052 55.01231795 32.02806531 61.05447388 36.05630493 C63.28396787 37.54346791 65.51208372 39.032677 67.73999023 40.5222168 C69.13521267 41.45367505 70.53047468 42.38507404 71.92578125 43.31640625 C72.56470306 43.74408295 73.20362488 44.17175964 73.86190796 44.61239624 C77.1916481 46.83231571 80.54811274 48.97489827 84 51 C83.49682338 55.58958069 83.49682338 55.58958069 81.3828125 57.3359375 C76.48389366 59.59045724 71.54938723 61.54062867 66.4675293 63.33520508 C44.4728223 71.12969519 25.80434099 82.7857351 9 99 C8.19199951 99.77730469 8.19199951 99.77730469 7.36767578 100.5703125 C-7.51438552 114.95562086 -20.77409621 130.94340644 -31 149 C-24.29821405 145.8338363 -18.13242506 142.31001103 -12.0625 138.0625 C-11.25039063 137.50038818 -10.43828125 136.93827637 -9.6015625 136.35913086 C0.21690983 129.52194159 9.80758799 122.37411386 19.39111328 115.21337891 C44.69660813 96.3181277 70.79298937 78.05855852 101 68 C101.99515625 67.65839844 102.9903125 67.31679688 104.015625 66.96484375 C111.45370199 64.82689381 118.87644272 64.69604711 126.5625 64.625 C127.6033374 64.61098145 128.6441748 64.59696289 129.71655273 64.58251953 C149.45365403 64.70376816 164.07421312 73.65589826 179.05371094 85.46679688 C180.90329725 86.92382171 182.76534772 88.36287419 184.6328125 89.796875 C196.7123377 99.11565339 208.17171642 109.10648186 219.34481812 119.48786926 C220.53783228 120.57777569 221.74436192 121.65295302 222.95913696 122.71855164 C230.28143538 129.17445111 237.15650614 136.03935813 244.03570938 142.96054459 C246.1785778 145.11635418 248.32470994 147.26886865 250.47164917 149.42062378 C255.0256084 153.98592115 259.57559925 158.55516061 264.125 163.125 C269.40958977 168.43329123 274.69584811 173.73989886 279.98635483 179.04229355 C282.08877957 181.15114497 284.18814274 183.26301086 286.28738403 185.37503052 C294.64591006 193.79679977 294.64591006 193.79679977 303.48962402 201.70121765 C305.99342421 203.85425209 308.16006842 206.23849837 310.375 208.6875 C311.62410156 210.05455078 311.62410156 210.05455078 312.8984375 211.44921875 C315.9021847 215.09503088 317.29278389 217.6936303 317.375 222.4375 C317.40335938 223.17871094 317.43171875 223.91992188 317.4609375 224.68359375 C316.59127541 229.05401423 313.68437336 231.53460074 310.1027832 233.97021484 C308.43735474 234.89374756 308.43735474 234.89374756 306.73828125 235.8359375 C306.1277742 236.17483002 305.51726715 236.51372253 304.88825989 236.86288452 C297.79864761 240.74531399 290.5159576 244.22119208 283.1875 247.625 C282.48955322 247.95083069 281.79160645 248.27666138 281.07250977 248.61236572 C248.22184477 263.91441378 248.22184477 263.91441378 238.75 261 C233.21962925 256.97791219 230.76723879 249.54197762 227.83862305 243.51049805 C220.35503012 228.15113374 211.90975546 213.57202996 203 199 C202.29938927 197.84341473 201.59903626 196.68667331 200.89892578 195.52978516 C200.19974813 194.38040982 199.50037212 193.23115512 198.80078125 192.08203125 C198.17985596 191.05956299 197.55893066 190.03709473 196.91918945 188.98364258 C194.18313261 184.73006788 191.1230743 180.74531139 187.97265625 176.79296875 C185.64709783 173.84693741 183.37771099 170.86244421 181.12109375 167.86328125 C171.08417864 154.49363087 171.08417864 154.49363087 160 142 C159.39800781 141.31292969 158.79601562 140.62585938 158.17578125 139.91796875 C148.67859642 129.50491284 135.25512652 123.14528596 121.25 122.4375 C94.52603614 122.49027505 65.09961467 131.95660312 42 145 C41.38398926 145.34111816 40.76797852 145.68223633 40.13330078 146.03369141 C27.15205683 153.27472304 15.13353611 162.01329567 4.1953125 172.078125 C0.65189488 175.18019167 -3.16261062 177.91000557 -6.9453125 180.7109375 C-25.40054866 194.39635201 -25.40054866 194.39635201 -36.4375 214.0625 C-37.54028971 221.78202797 -36.53811719 228.53020611 -32 235 C-21.94966913 246.64869674 -3.70788786 250.33917444 11 252 C32.17261685 253.22043451 48.9355203 248.24686802 65 234 C66.17755859 232.98486328 66.17755859 232.98486328 67.37890625 231.94921875 C71.62882686 228.21774752 75.67446015 224.33850531 79.62084961 220.29174805 C102.22043393 197.17060881 102.22043393 197.17060881 114.75 195.5 C118.28072529 196.04318851 120.21736208 196.77388966 123 199 C126.6506095 205.20211077 126.51715662 212.36458436 124.90625 219.2109375 C121.19613783 230.62912755 114.63699818 239.91887255 107 249 C106.21753906 249.94746094 105.43507813 250.89492188 104.62890625 251.87109375 C84.50602921 275.16604993 53.86357128 290.50450503 23.3125 293.75390625 C-4.43073991 295.61025539 -42.56454368 295.16437639 -65.26953125 276.09375 C-71.47247509 269.51210012 -74.72767376 261.27521025 -75.46484375 252.33984375 C-75.54283203 251.46392578 -75.62082031 250.58800781 -75.70117188 249.68554688 C-75.85902916 247.84996669 -76.01265952 246.0140182 -76.16210938 244.17773438 C-76.28102539 242.86579102 -76.28102539 242.86579102 -76.40234375 241.52734375 C-76.50276978 240.33226196 -76.50276978 240.33226196 -76.60522461 239.11303711 C-76.91162993 236.70739126 -76.91162993 236.70739126 -79 234 C-83.5885918 235.39473384 -86.17447027 237.91510316 -89.25 241.4375 C-89.72961182 241.97318604 -90.20922363 242.50887207 -90.70336914 243.06079102 C-94.48481858 247.31876202 -98.06490552 251.73030509 -101.6328125 256.16796875 C-104.25450831 259.30448602 -107.01160227 262.27466433 -109.8125 265.25 C-132.02922452 287.79511735 -132.02922452 287.79511735 -143.0625 315.75 C-141.69031697 319.94726575 -140.60201046 321.38677672 -137 324 C-125.12479284 329.00274685 -110.26779983 331.86907993 -97.87109375 327.046875 C-93.08940367 324.37152439 -90.74757814 320.07313824 -89 315 C-88.49601705 311.92010418 -88.12108086 308.84156224 -87.7578125 305.7421875 C-87 303 -87 303 -85.4296875 301.0703125 C-81.72215871 299.43709242 -78.77387999 299.92511743 -75 301 C-70.7151356 302.74208429 -66.58642329 304.77107118 -62.4375 306.8125 C-53.90563789 310.90238056 -45.82424786 314.39396579 -36.5625 316.3515625 C-34 317 -34 317 -32 319 C-31.6484375 321.390625 -31.6484375 321.390625 -32 324 C-37.29765605 330.89536185 -45.89722408 335.39164238 -53.22558594 339.90185547 C-54.90303763 340.93999219 -56.56533681 342.00249779 -58.2265625 343.06640625 C-84.54847968 359.75437111 -117.04270034 372.57773152 -148.64868164 365.81567383 C-163.26954149 362.20729254 -175.90111637 354.72296569 -184.26953125 341.921875 C-186.76438208 337.70935034 -189.10062408 333.41202143 -191.44262695 329.11303711 C-194.0514184 324.42163887 -196.96602475 320.1925395 -200.3125 316 C-205.57732149 309.3697435 -209.35382843 303.97884136 -209.62890625 295.2734375 C-208.29592723 290.45484254 -204.95501374 287.61255932 -200.90625 285.015625 C-199.7821875 284.43296875 -198.658125 283.8503125 -197.5 283.25 C-184.81410751 276.36418522 -174.37170371 266.93939929 -164 257 C-163.24847656 256.28972656 -162.49695313 255.57945312 -161.72265625 254.84765625 C-157.21817418 250.48589044 -153.25594463 245.78450602 -149.3359375 240.89453125 C-147.02383041 238.02952899 -144.64200478 235.23591335 -142.25 232.4375 C-131.89035896 220.01879987 -122.79428495 206.55679692 -114 193 C-113.51015625 192.24928223 -113.0203125 191.49856445 -112.515625 190.72509766 C-97.91106336 168.28956283 -84.48189899 145.12813333 -71.15844727 121.91674805 C-67.51551963 115.58388863 -63.81266046 109.29472072 -60 103.0625 C-59.5558374 102.33538818 -59.1116748 101.60827637 -58.65405273 100.85913086 C-56.2177918 96.89852626 -53.67136788 93.03737268 -51.0625 89.1875 C-44.68944368 79.15300027 -41.93026475 67.40824897 -44.50830078 55.68945312 C-45.34398995 52.3414364 -46.2337633 49.01726735 -47.22045898 45.71044922 C-48.58988308 41.06250001 -49.7345421 36.88470498 -49 32 C-45.22432176 29.02767597 -42.33191845 28.63983054 -37.60546875 28.70703125 C-36.40341797 28.71669922 -35.20136719 28.72636719 -33.96289062 28.73632812 C-32.09407227 28.7740332 -32.09407227 28.7740332 -30.1875 28.8125 C-28.28967773 28.83280273 -28.28967773 28.83280273 -26.35351562 28.85351562 C-23.23524357 28.88881682 -20.11783958 28.93813181 -17 29 C-17.03480469 27.87722656 -17.06960938 26.75445312 -17.10546875 25.59765625 C-17.49784523 7.57248443 -17.49784523 7.57248443 -12.703125 1.3046875 C-9.07408563 -1.47535642 -4.30593815 -0.56283202 0 0 Z " fill="#751E2B" transform="translate(460,347)"/>
<path d="M0 0 C2.54792988 2.07857438 3.7448476 3.69559846 4.3828125 6.95703125 C5.68904852 32.51571607 -11.02168964 58.89766414 -22 81 C-22.43489746 81.88977539 -22.86979492 82.77955078 -23.31787109 83.69628906 C-30.69950532 98.76957996 -40.35997735 111.89918472 -52 124 C-52.86238281 124.90234375 -53.72476562 125.8046875 -54.61328125 126.734375 C-60.22774112 132.48383603 -66.0719303 137.69208766 -72.36279297 142.68359375 C-74.22986494 144.1848243 -76.07074018 145.7150115 -77.91015625 147.25 C-87.3865028 155.15244709 -97.06080775 162.69089213 -107 170 C-108.51970908 171.12215504 -110.03923456 172.24455877 -111.55859375 173.3671875 C-115.55945255 176.32096109 -119.5653962 179.26776666 -123.57226562 182.21337891 C-125.98252539 183.98714006 -128.39013424 185.76443644 -130.796875 187.54296875 C-137.79562831 192.71272216 -144.80098551 197.86974073 -151.86987305 202.94335938 C-174.94172727 219.50853608 -197.41697669 236.46006055 -215 259 C-215.78890625 259.98355469 -216.5778125 260.96710938 -217.390625 261.98046875 C-242.3839522 293.40659405 -261.55895039 330.92122647 -280.47949219 366.18115234 C-281.95474033 368.91609375 -283.44610763 371.64140929 -284.9453125 374.36328125 C-292.26554522 387.65692155 -299.27470458 401.09819092 -306.21160889 414.59413147 C-308.27530813 418.604923 -310.35953113 422.60439662 -312.45703125 426.59765625 C-319.03989754 439.13460659 -325.35591826 451.75857922 -331.38183594 464.57226562 C-332.89566745 467.77899382 -334.42111199 470.97985156 -335.95066833 474.17909241 C-345.39682094 493.9403275 -354.58694889 513.77315242 -363 534 C-363.31001953 534.74423218 -363.62003906 535.48846436 -363.93945312 536.25524902 C-394.20670946 600.24988402 -394.20670946 600.24988402 -397.8125 667.6875 C-393.64865257 675.29729013 -387.30189414 678.87221647 -379.1875 681.25 C-349.61984353 687.54099074 -317.93240703 663.7720497 -294.04443359 649.68310547 C-279.68549448 641.22859679 -279.68549448 641.22859679 -273 642 C-269.27966964 647.58049554 -270.37866916 654.79503398 -271.6171875 661.18359375 C-275.94160236 676.51039155 -284.00967929 693.34867752 -297 703 C-300.04095025 704.66359537 -303.17083936 705.90760448 -306.4140625 707.12109375 C-307.29797165 707.46714661 -308.1818808 707.81319946 -309.09257507 708.16973877 C-311.93053768 709.27580821 -314.7770761 710.35736871 -317.625 711.4375 C-319.58791489 712.19460248 -321.55039776 712.95282597 -323.51245117 713.7121582 C-328.20052572 715.52115425 -332.89614837 717.30936577 -337.59576416 719.08813477 C-339.6681131 719.87412378 -341.73800445 720.6659312 -343.80615234 721.46289062 C-370.42683559 731.70256931 -404.57590853 744.12680182 -433 734 C-446.67921212 727.91167734 -453.48612566 716.29570748 -459 703 C-482.53215818 639.15683714 -448.60506184 557.33921057 -424 498 C-423.74023376 497.3734552 -423.48046753 496.7469104 -423.21282959 496.10137939 C-408.29659098 460.23006712 -391.48028895 424.95961657 -372.64941406 390.98242188 C-370.88974233 387.80063534 -369.14375273 384.61155702 -367.3984375 381.421875 C-350.51727849 350.66579077 -331.84213584 321.22238628 -311 293 C-309.87189005 291.46130819 -308.74429946 289.9222355 -307.6171875 288.3828125 C-301.00867799 279.37087091 -294.32660883 270.41554665 -287.6081543 261.48535156 C-283.34375992 255.81127197 -279.13138367 250.10130948 -274.9375 244.375 C-268.64088218 235.79048068 -262.13227738 227.38414735 -255.56494141 219.00585938 C-253.33348357 216.14569438 -251.13677176 213.25998977 -248.9375 210.375 C-238.95368515 197.38618824 -228.75179178 184.45046378 -217 173 C-216.47664063 172.443125 -215.95328125 171.88625 -215.4140625 171.3125 C-202.40667131 157.70139023 -185.90442285 147.22549836 -170.54736328 136.47802734 C-161.16399951 129.90467809 -152.04018989 123.03662897 -143 116 C-142.36400879 115.50580566 -141.72801758 115.01161133 -141.07275391 114.50244141 C-134.18703678 109.14488134 -127.36755277 103.71480293 -120.6328125 98.16796875 C-118.88270474 96.72685627 -117.12750388 95.29190597 -115.3671875 93.86328125 C-109.01974368 88.70945296 -102.78965092 83.43211059 -96.59765625 78.09375 C-94.2621662 76.08054875 -91.91643598 74.08071839 -89.55859375 72.09375 C-82.46289516 66.09832419 -75.59356307 59.91070083 -68.85595703 53.5144043 C-65.4730151 50.30400741 -62.05121383 47.16364517 -58.546875 44.0859375 C-53.90682089 39.92925921 -49.52425971 35.55375561 -45.15625 31.11328125 C-44.45590637 30.40273087 -43.75556274 29.69218048 -43.03399658 28.96009827 C-40.11782115 25.9985602 -37.20371834 23.03523141 -34.30419922 20.05737305 C-11.4822841 -3.34899953 -11.4822841 -3.34899953 0 0 Z " fill="#751E2B" transform="translate(1245,322)"/>
<path d="M0 0 C2.375 1.5 2.375 1.5 4 4 C4.47500301 9.93146795 3.59118959 14.00763536 0.88671875 19.33203125 C0.56138657 20.00209198 0.23605438 20.67215271 -0.09913635 21.36251831 C-1.15369963 23.52114068 -2.23161035 25.66695468 -3.3125 27.8125 C-4.05075925 29.30225926 -4.7885497 30.79225092 -5.52587891 32.2824707 C-22.81891703 67.02465476 -40.86489215 92.23629691 -77.0625 108.5 C-111.88470895 124.22183751 -129.73782756 149.90688308 -143 185 C-144.65142797 189.70655121 -146.20579476 194.44255226 -147.73046875 199.19140625 C-147.94451544 199.85537666 -148.15856213 200.51934708 -148.37909508 201.20343781 C-153.15998251 216.08222948 -157.27963504 231.12036762 -161.27575684 246.2255249 C-162.17971378 249.63504821 -163.09334027 253.04197914 -164.00585938 256.44921875 C-166.73598231 266.65400271 -169.44425474 276.86447108 -172.11917114 287.08387756 C-174.45953873 296.02270253 -176.89590769 304.92880598 -179.4375 313.8125 C-179.6425415 314.53189758 -179.84758301 315.25129517 -180.05883789 315.99249268 C-183.58697574 328.35197143 -187.31826543 340.64470436 -191.09524536 352.93008423 C-222.45005545 446.20533287 -222.45005545 446.20533287 -208.453125 540.13671875 C-207.06996296 542.52160381 -205.61036347 544.76412345 -204 547 C-203.2575 548.0725 -202.515 549.145 -201.75 550.25 C-197.07285613 554.92714387 -191.37825812 557.81087094 -185.5 560.75 C-183 562 -183 562 -181 564 C-180.13076376 570.19330819 -181.3068582 573.58520204 -184.984375 578.5859375 C-202.95290979 600.10639196 -228.7237339 614.71203443 -253 628 C-253.83966309 628.4650293 -254.67932617 628.93005859 -255.54443359 629.40917969 C-278.27073098 641.94570892 -305.92392756 656.99803647 -332.5625 657.1875 C-333.47128906 657.20167969 -334.38007812 657.21585938 -335.31640625 657.23046875 C-338.92508716 656.92055292 -341.75964089 655.84167225 -344.75 653.8125 C-346.78855501 650.85659523 -346.88624345 648.58333135 -347 645 C-345.44502612 637.93922064 -342.55581168 631.419834 -339.5625 624.875 C-333.78413874 611.99417539 -328.35285391 598.97430876 -322.9375 585.9375 C-322.52106232 584.93531433 -322.10462463 583.93312866 -321.67556763 582.90057373 C-320.02608249 578.93011799 -318.37666001 574.95964624 -316.73216248 570.98712158 C-314.63758813 565.92944606 -312.52937475 560.87822637 -310.39453125 555.83740234 C-305.22292797 543.59935222 -300.43098162 531.31776009 -296.125 518.75 C-295.52844939 517.02591248 -294.93151602 515.30195737 -294.33422852 513.578125 C-288.67267046 497.1976802 -283.17137442 480.76423035 -277.75787354 464.300354 C-276.98903121 461.9667067 -276.2164911 459.63431362 -275.44287109 457.30224609 C-259.42364775 408.98921327 -245.58646882 360.04160321 -232 311 C-231.69606323 309.90345093 -231.39212646 308.80690186 -231.07897949 307.67712402 C-229.4943745 301.95326993 -227.92044762 296.2266838 -226.36508179 290.49481201 C-225.92810049 288.88587535 -225.48914081 287.27747408 -225.04776001 285.66973877 C-222.59005359 276.69767254 -220.50600636 267.71660919 -218.68359375 258.59375 C-215.95240542 245.02792215 -212.19126238 231.79380893 -208.375 218.5 C-197.23620375 186.78060587 -197.23620375 186.78060587 -201 155 C-206.1560805 149.97282151 -210.84504416 149.62536187 -217.82641602 149.53588867 C-229.66130032 149.76060989 -241.60407266 153.68292408 -252.66796875 157.671875 C-256.95651551 159.12079218 -260.86633629 159.50414342 -265.375 159.4375 C-266.11105469 159.42920166 -266.84710937 159.42090332 -267.60546875 159.41235352 C-278.17251264 159.08733826 -286.37269995 155.31507139 -294 148 C-300.63564762 140.62383154 -303.285036 133.77176181 -303.59375 123.8671875 C-302.80192649 120.04351346 -301.05034747 118.25659094 -298 116 C-294.2100256 113.9842334 -290.27249222 112.36991392 -286.3046875 110.73828125 C-284.48081009 109.97297844 -284.48081009 109.97297844 -282.62008667 109.19221497 C-265.46270429 102.016901 -248.16635706 95.17033201 -230.8895874 88.28924561 C-227.23012794 86.83087487 -223.57193661 85.3693395 -219.91379452 83.90766811 C-188.05088157 71.17663363 -156.14666141 58.55004561 -124.1875 46.0625 C-122.24909299 45.30463637 -120.31069817 44.54674156 -118.37231445 43.78881836 C-113.5082441 41.88716964 -108.64382858 39.98640568 -103.77929688 38.0859375 C-101.1040527 37.04065587 -98.42895127 35.99500993 -95.75390625 34.94921875 C-72.77626167 25.96664441 -49.78185523 17.02783172 -26.77612305 8.11743164 C-25.76122299 7.72426254 -24.74632294 7.33109344 -23.70066833 6.92601013 C-21.79741559 6.18874718 -19.89407039 5.45172285 -17.99061584 4.71498108 C-17.14067551 4.38574142 -16.29073517 4.05650177 -15.41503906 3.71728516 C-14.63640503 3.41622864 -13.857771 3.11517212 -13.05554199 2.80499268 C-11.3893037 2.15245937 -9.73343132 1.47349897 -8.08105469 0.78662109 C-5.19603482 -0.30389205 -3.05480518 -0.38997513 0 0 Z " fill="#751E2B" transform="translate(964,521)"/>
<path d="M0 0 C2.40791584 3.61187375 2.67285956 5.83984681 2 10 C-2.90218603 27.29451418 -13.93667545 42.93135297 -23.94116211 57.61669922 C-25.57575442 60.01948346 -27.19366693 62.43292725 -28.81054688 64.84765625 C-40.32292304 81.9174975 -53.13396385 95.47648579 -71 106 C-71.60602051 106.36061523 -72.21204102 106.72123047 -72.83642578 107.09277344 C-92.31578167 118.50657871 -114.11048874 125.51367062 -135.4375 132.625 C-136.2291153 132.88906647 -137.02073059 133.15313293 -137.83633423 133.42520142 C-140.09638314 134.1762565 -142.3581908 134.92165534 -144.62109375 135.6640625 C-145.2938736 135.88645096 -145.96665344 136.10883942 -146.65982056 136.33796692 C-152.73318568 138.31193901 -158.10951146 139.19108072 -164.5 139.3125 C-166.43359375 139.36857422 -166.43359375 139.36857422 -168.40625 139.42578125 C-172.55883213 138.93379054 -174.13781776 137.99543095 -177 135 C-179.68280822 126.32032633 -176.03045312 117.79228193 -172.0078125 110.02734375 C-167.49904321 101.70392227 -162.41120003 93.76345676 -157 86 C-156.19780397 84.8216913 -155.39572567 83.64330244 -154.59375 82.46484375 C-144.58433085 67.90196731 -132.98004352 59.19369201 -118 50 C-117.12617676 49.4632666 -116.25235352 48.9265332 -115.35205078 48.37353516 C-26.29519321 -5.95362865 -26.29519321 -5.95362865 0 0 Z " fill="#751E2B" transform="translate(1047,825)"/>
<path d="M0 0 C0.85078125 -0.00515625 1.7015625 -0.0103125 2.578125 -0.015625 C4.75 0.25 4.75 0.25 6.75 2.25 C11.36721612 25.77350108 -15.69267271 58.51531122 -28.1328125 77.05615234 C-36.72384939 89.4851016 -46.74448462 99.48687289 -59.375 107.75 C-60.0246875 108.17659912 -60.674375 108.60319824 -61.34375 109.04272461 C-73.40932173 116.7411719 -86.1910322 122.76400066 -99.375 128.25 C-100.82718317 128.85904806 -102.27933118 129.46817995 -103.73144531 130.07739258 C-146.88119756 148.12063467 -146.88119756 148.12063467 -160.25 146.25 C-163.93623011 144.63727433 -165.00355 143.619675 -167.25 140.25 C-169.2264555 119.4972173 -151.35219391 93.60968119 -138.76953125 78.08203125 C-131.46653064 69.77345396 -123.09257136 63.20916346 -113.9375 57.0625 C-112.97255615 56.41104004 -112.0076123 55.75958008 -111.01342773 55.08837891 C-28.76426714 -0.1764679 -28.76426714 -0.1764679 0 0 Z " fill="#751E2B" transform="translate(1097.25,672.75)"/>
<path d="M0 0 C1.94666395 22.45152424 -11.19629765 46.01141886 -21.125 65.375 C-21.59107666 66.29490723 -22.05715332 67.21481445 -22.53735352 68.16259766 C-36.60443591 94.87224777 -64.10300226 109.04440163 -90.36279297 121.41064453 C-100.54483179 126.21455461 -110.59635371 131.26964794 -120.64648438 136.34204102 C-124.4225482 138.24525967 -128.20740864 140.12994539 -132 142 C-132.61065308 142.30242615 -133.22130615 142.60485229 -133.85046387 142.91644287 C-135.61089088 143.78252113 -137.3795397 144.63182549 -139.1484375 145.48046875 C-140.15825684 145.96797607 -141.16807617 146.4554834 -142.20849609 146.95776367 C-145.04936394 148.01843053 -146.99846647 148.30055365 -150 148 C-151 147 -151 147 -151.22265625 143.8671875 C-150.31821604 128.15848909 -137.027539 111.88350976 -129 99 C-128.36481445 97.97841797 -127.72962891 96.95683594 -127.07519531 95.90429688 C-104.88882682 60.33695497 -79.60697852 37.53951182 -43 17 C-42.16259277 16.52900879 -41.32518555 16.05801758 -40.46240234 15.57275391 C-31.9174006 10.81077545 -23.28180484 6.4929436 -14.1875 2.875 C-13.45241211 2.57932129 -12.71732422 2.28364258 -11.95996094 1.97900391 C-7.82347823 0.40790827 -4.49658244 -0.32471396 0 0 Z " fill="#751E2B" transform="translate(1153,526)"/>
</svg>
